<svg width="831" height="577" viewBox="0 0 831 577" fill="none" xmlns="http://www.w3.org/2000/svg">
<g clip-path="url(#clip0)">
<path opacity="0.1" d="M271.5 580C125.421 580 7 539.706 7 490C7 440.294 125.421 400 271.5 400C417.579 400 536 440.294 536 490C536 539.706 417.579 580 271.5 580Z" fill="black"/>
<path opacity="0.1" d="M130.994 418.999C116.775 416.787 105.93 409.218 106.772 402.094C107.614 394.97 119.824 390.989 134.043 393.202C148.262 395.414 159.106 402.983 158.264 410.107C157.422 417.231 145.213 421.212 130.994 418.999Z" fill="black"/>
<path d="M449.056 58.0033C435.717 58.0033 424.904 53.8674 424.904 48.7655C424.904 43.6636 435.717 39.5277 449.056 39.5277C462.394 39.5277 473.208 43.6636 473.208 48.7655C473.208 53.8674 462.394 58.0033 449.056 58.0033Z" fill="#3F3D56"/>
<path d="M604.946 349.414H606.41V121.404C606.432 105.368 603.331 89.5283 597.335 75.0429C591.338 60.5574 582.597 47.7921 571.75 37.6795C561.181 27.7106 548.805 20.5769 535.525 16.7995C522.245 13.0222 508.398 12.6967 494.994 15.8467C475.927 20.3278 460.278 31.2272 448.483 48.2426L449.629 49.2883C461.204 32.5898 476.567 21.8922 495.288 17.4919C508.479 14.3921 522.106 14.7128 535.175 18.4307C548.244 22.1486 560.424 29.1697 570.825 38.981C581.503 48.9363 590.108 61.5031 596.012 75.7634C601.915 90.0237 604.967 105.617 604.946 121.404V349.414Z" fill="#3F3D56"/>
<path d="M137.313 48.4249H549.361V242.419H137.313V48.4249Z" fill="#F2F2F2"/>
<path d="M469.586 65.1719H536.187V122.377H469.586V65.1719Z" fill="white"/>
<path d="M165.124 65.2209H419.818V76.9782H165.124V65.2209Z" fill="white"/>
<path d="M290.276 87.8955H419.818V99.6527H290.276V87.8955Z" fill="white"/>
<path d="M165.124 110.57H419.818V122.327H165.124V110.57Z" fill="white"/>
<path d="M165.124 153.4H536.187V165.157H165.124V153.4Z" fill="white"/>
<path d="M321.746 171.876H536.187V183.633H321.746V171.876Z" fill="white"/>
<path d="M400.789 190.351H536.187V202.108H400.789V190.351Z" fill="white"/>
<path d="M173.907 363.982C165.014 363.982 157.805 355.71 157.805 345.506C157.805 335.303 165.014 327.031 173.907 327.031C182.799 327.031 190.008 335.303 190.008 345.506C190.008 355.71 182.799 363.982 173.907 363.982Z" fill="white"/>
<path d="M163.598 267.714C163.598 267.714 184.09 286.189 173.844 290.388C163.598 294.587 157.011 275.272 157.011 275.272L163.598 267.714Z" fill="#843722"/>
<path d="M162.866 260.995L167.257 269.393C167.257 269.393 159.938 269.393 158.475 281.99L152.62 273.592L162.866 260.995Z" fill="#74A444"/>
<path d="M65.5262 452.47L64.7944 477.664L73.5769 483.542L77.2363 481.023L76.5044 452.47H65.5262Z" fill="#843722"/>
<path d="M117.489 445.751L116.026 472.625L136.518 482.703L135.054 468.426C135.054 468.426 129.199 457.509 130.663 445.751H117.489Z" fill="#843722"/>
<path d="M86.0186 243.359C86.0186 243.359 74.3085 278.631 72.1129 300.466C69.9173 322.301 66.2579 380.247 66.2579 380.247L58.9391 454.989L79.4317 458.348L88.2142 382.766L107.975 308.024L112.366 382.766L116.026 450.79L135.054 451.63L136.518 381.087L144.569 291.228L140.178 248.398L86.0186 243.359Z" fill="#2F2E41"/>
<path d="M75.0405 479.343C75.0405 479.343 73.84 465.239 64.9258 473.131L63.3305 471.785L56.0117 490.261C56.0117 490.261 47.2292 504.537 62.5986 506.217C77.968 507.897 76.5043 490.261 76.5043 490.261L77.968 482.703L77.2361 477.753L75.0405 479.343Z" fill="#2F2E41"/>
<path d="M117.489 462.547C115.688 463.729 114.195 465.443 113.165 467.51C112.136 469.578 111.607 471.924 111.634 474.305C111.634 482.703 112.366 483.542 112.366 483.542L123.344 486.902C123.344 486.902 130.663 486.062 135.054 491.101C139.446 496.139 161.402 499.499 161.402 492.78C161.402 486.062 143.105 475.144 143.105 475.144C143.105 475.144 137.671 464.615 133.801 465.681C129.931 466.746 128.468 468.426 128.468 469.266C128.468 470.106 130.663 475.984 130.663 475.984C130.663 475.984 118.221 472.625 117.489 462.547Z" fill="#2F2E41"/>
<path d="M119 140C109.059 140 101 129.926 101 117.5C101 105.074 109.059 95 119 95C128.941 95 137 105.074 137 117.5C137 129.926 128.941 140 119 140Z" fill="#843722"/>
<path d="M105.413 124.528L97.3627 145.523L119.319 181.634C119.319 181.634 120.783 142.164 125.174 135.445C129.565 128.727 105.413 124.528 105.413 124.528Z" fill="#843722"/>
<path d="M115.66 168.197L112.001 157.28L109.073 158.12L105.414 154.761L100.29 136.285L92.9717 142.164L83.4572 252.177L142.739 253.857L134.689 177.435L127.37 155.6L122.087 147.586L118.587 159.799L115.66 168.197Z" fill="#74A444"/>
<path d="M98.8265 215.226L96.5869 139.26C96.5869 139.26 92.2396 139.644 90.7758 142.164C89.312 144.683 65.16 149.722 65.16 149.722L69.5513 227.823C69.5513 227.823 51.2543 289.968 57.8412 293.328C64.4282 296.687 76.1382 295.847 76.1382 295.847L98.8265 215.226Z" fill="#575A89"/>
<path d="M134.323 205.568L126.559 154.37L143.837 167.777L139.446 204.729L143.105 229.923C143.105 229.923 157.011 299.626 152.619 302.145C148.228 304.665 143.105 302.145 143.105 302.145L134.323 231.602V205.568Z" fill="#575A89"/>
<path d="M138.714 166.098L143.837 167.777L146.033 201.369L149.692 230.762L167.257 266.874C167.257 266.874 158.475 260.155 154.815 279.471L135.471 240.826L138.714 166.098Z" fill="#575A89"/>
<path d="M81.6274 260.995C81.6274 260.995 102.12 279.471 91.8737 283.67C81.6274 287.869 75.0405 268.553 75.0405 268.553L81.6274 260.995Z" fill="#843722"/>
<path d="M69.1857 270.233L75.7726 279.471L84.5551 261.835L80.8957 254.277L69.1857 270.233Z" fill="#74A444"/>
<path d="M70.6492 152.661L64.7942 149.302C64.7942 149.302 60.4029 156.02 59.671 161.899C58.9392 167.777 55.2798 175.336 55.2798 179.535C55.2798 183.734 45.0334 223.204 45.0334 223.204L68.4536 277.791C68.4536 277.791 73.5767 257.636 84.5549 255.956L66.2579 226.563L76.5043 205.568L70.6492 152.661Z" fill="#575A89"/>
<path d="M135.014 107.913C134.788 106.554 133.428 105.648 132.069 105.874C128.445 106.327 124.82 106.101 121.196 105.195C118.93 104.515 116.665 103.382 114.4 102.023C113.947 104.062 113.267 106.101 112.134 107.686C111.002 109.045 110.096 110.631 109.643 112.443C109.19 113.349 108.283 114.028 107.377 114.481C107.377 114.481 106.471 110.178 104.659 109.951C101.034 109.272 101.488 114.481 102.847 116.067C103.753 117.199 104.885 118.105 106.018 119.011C105.792 120.37 105.339 121.503 104.885 122.635C103.979 123.995 103.073 125.354 101.714 126.486C101.714 126.486 100.808 116.52 98.3161 111.99C95.8243 107.46 108.737 89.3391 113.494 90.0186C122.555 90.4716 129.577 94.0957 133.655 93.6427C135.467 93.6427 140.677 98.8523 138.185 102.476C136.826 103.835 135.694 105.874 135.014 107.913Z" fill="black"/>
<path d="M99.9496 33.6491C98.8178 33.6491 97.9004 32.3331 97.9004 30.7098C97.9004 29.0865 98.8178 27.7705 99.9496 27.7705C101.081 27.7705 101.999 29.0865 101.999 30.7098C101.999 32.3331 101.081 33.6491 99.9496 33.6491Z" fill="#FFB8B8"/>
<path d="M439.159 76.9562L437.879 73.625L436.599 76.9562C435.319 80.0312 433.016 82.5938 429.944 83.6188C433.016 84.9 435.319 87.2063 436.599 90.2813L437.879 93.6125L439.159 90.2813C440.439 87.2063 442.742 84.6438 445.814 83.6188C442.742 82.3375 440.439 80.0312 439.159 76.9562Z" fill="white"/>
<path d="M305.8 346.787L304.52 343.456L303.24 346.787C301.961 349.862 299.657 352.425 296.585 353.45C299.657 354.731 301.961 357.037 303.24 360.112L304.52 363.444L305.8 360.112C307.08 357.037 309.384 354.475 312.455 353.45C309.384 352.169 307.08 349.862 305.8 346.787Z" fill="white"/>
<path d="M628.83 167.156L628.063 164.85L627.295 167.156C626.527 169.206 624.991 170.744 622.943 171.512C624.991 172.281 626.527 173.819 627.295 175.869L628.063 178.175L628.83 175.869C629.598 173.819 631.134 172.281 633.182 171.512C631.39 171 629.598 169.206 628.83 167.156Z" fill="white"/>
<path d="M253.839 192.012L253.071 189.706L252.303 192.012C251.535 194.062 249.999 195.6 247.951 196.369C249.999 197.137 251.535 198.675 252.303 200.725L253.071 203.031L253.839 200.725C254.607 198.675 256.142 197.137 258.19 196.369C256.142 195.856 254.607 194.062 253.839 192.012Z" fill="white"/>
<path d="M200.086 496.95H204.437L240.272 322.188H231.314L200.086 496.95Z" fill="#C7C7C7"/>
<path d="M538.218 496.95H533.867L498.031 322.188H506.99L538.218 496.95Z" fill="#C7C7C7"/>
<path d="M194.198 216.869C192.663 218.406 191.895 220.456 191.383 222.506C191.895 220.969 192.919 219.431 194.198 218.406C195.99 217.381 198.294 217.381 200.342 216.356C201.877 215.075 203.157 213.537 203.669 211.487C202.389 212.769 200.854 213.537 199.062 214.306C197.27 214.562 195.478 215.587 194.198 216.869Z" fill="#482C3B"/>
<path d="M216.212 412.644H209.556V477.475H216.212V412.644Z" fill="#A6AEBA"/>
<path d="M218.515 403.419H207.765V412.9H218.515V403.419Z" fill="#D2DCEB"/>
<path d="M217.235 452.619H209.044V472.862H217.235V452.619Z" fill="#D2DCEB"/>
<path d="M218.515 472.862H207.765V482.344H218.515V472.862Z" fill="#D2DCEB"/>
<path d="M226.194 385.481H200.086V403.419H226.194V385.481Z" fill="#A6AEBA"/>
<path d="M179.352 380.1H249.231C249.999 380.1 250.511 380.613 250.511 381.381V391.888C250.511 392.656 249.999 393.169 249.231 393.169H179.352C178.584 393.169 178.072 392.656 178.072 391.888V381.381C178.072 380.613 178.584 380.1 179.352 380.1Z" fill="#A6AEBA"/>
<path d="M187.031 491.056L207.509 481.062V473.887L184.472 489.519L187.031 491.056Z" fill="#A6AEBA"/>
<path d="M184.472 497.975C187.157 497.975 189.335 495.794 189.335 493.106C189.335 490.418 187.157 488.237 184.472 488.237C181.786 488.237 179.608 490.418 179.608 493.106C179.608 495.794 181.786 497.975 184.472 497.975Z" fill="#A6AEBA"/>
<path d="M212.884 497.975C215.57 497.975 217.747 495.794 217.747 493.106C217.747 490.418 215.57 488.237 212.884 488.237C210.198 488.237 208.021 490.418 208.021 493.106C208.021 495.794 210.198 497.975 212.884 497.975Z" fill="#A6AEBA"/>
<path d="M238.737 491.056L218.259 481.062V473.887L241.552 489.519L238.737 491.056Z" fill="#A6AEBA"/>
<path d="M241.552 497.975C244.238 497.975 246.416 495.794 246.416 493.106C246.416 490.418 244.238 488.237 241.552 488.237C238.866 488.237 236.689 490.418 236.689 493.106C236.689 495.794 238.866 497.975 241.552 497.975Z" fill="#A6AEBA"/>
<path d="M214.164 477.475H211.604V493.106H214.164V477.475Z" fill="#A6AEBA"/>
<path d="M166.042 387.531C163.738 387.531 161.435 385.994 160.923 383.687C159.131 376.512 156.059 362.931 155.803 329.106C155.547 302.969 151.964 276.831 145.309 251.719C144.541 248.387 146.077 245.056 148.892 243.262C150.428 242.237 152.22 241.981 154.012 241.981H218.771C218.771 241.981 245.392 289.644 248.719 305.787C252.303 322.187 257.166 384.712 257.166 384.712L166.042 387.531Z" fill="#D0DFE1"/>
<path d="M168.09 387.531C168.09 387.531 161.947 375.744 161.947 329.106C161.947 290.669 154.267 259.15 151.964 246.85C151.452 244.544 152.988 242.237 155.547 241.981C155.803 241.981 156.059 241.981 156.315 241.981H225.17C225.17 241.981 251.791 289.644 255.119 305.787C258.446 321.931 263.565 384.712 263.565 384.712L168.09 387.531Z" fill="#B0BEBF"/>
<path d="M230.802 387.531H165.274C163.482 387.531 161.947 385.994 161.947 384.2V373.438H230.802V387.531Z" fill="#D0DFE1"/>
<path d="M274.828 387.531H178.072V377.538C178.072 375.231 179.864 373.438 182.168 373.438H274.572C276.876 373.438 278.668 375.231 278.668 377.538V383.431C278.923 385.737 277.132 387.531 274.828 387.531Z" fill="#B0BEBF"/>
<path d="M187.799 225.325C187.799 225.325 197.782 222.25 198.806 217.894C199.574 214.306 200.854 203.287 200.854 203.287H218.259C218.003 207.644 218.003 212 218.259 216.356C219.795 224.3 229.778 226.862 229.778 226.862L231.314 251.462L205.717 272.987L180.888 248.131L187.799 225.325Z" fill="#843722"/>
<path d="M227.73 176.381C232.081 182.275 231.314 183.044 230.546 191.244C230.034 196.881 229.01 202.519 226.962 207.9C225.682 210.975 219.539 224.044 208.533 219.175C202.133 216.356 197.014 211.488 193.43 205.594C191.895 200.981 191.127 195.856 191.127 190.988C191.127 185.606 190.871 178.688 191.127 174.588C191.895 160.238 219.539 165.619 227.73 176.381Z" fill="#843722"/>
<path d="M256.398 342.944C265.869 340.894 271.244 343.969 276.876 350.888C282.507 357.806 280.203 374.206 276.876 388.044C273.548 401.881 260.238 493.106 260.238 493.106H250.511C250.511 493.106 247.951 457.231 246.416 430.838C244.88 404.444 250.511 367.031 250.511 367.031L213.396 343.2C213.652 342.944 247.951 344.738 256.398 342.944Z" fill="#062B33"/>
<path d="M255.886 329.619C263.053 336.537 284.555 347.813 280.203 362.162L251.535 374.206C251.535 374.206 222.355 363.7 213.396 342.944L204.437 322.187L223.635 314.5L255.886 329.619Z" fill="#062B33"/>
<path d="M235.153 348.069C240.528 351.913 254.607 358.063 251.791 374.463C250.255 382.663 226.962 432.631 214.42 453.644C208.021 464.406 196.246 486.7 196.246 486.7L185.495 489.263C185.495 489.263 193.942 462.1 199.574 436.988C205.205 411.875 221.843 381.894 221.843 381.894C214.932 377.281 207.765 373.181 200.342 369.594C191.127 365.494 186.263 363.956 200.086 350.888C213.908 337.819 224.658 340.638 235.153 348.069Z" fill="#09333A"/>
<path d="M255.886 270.681C257.166 276.319 258.958 281.956 261.518 287.081C263.821 291.181 310.919 308.35 310.919 308.35H283.531C283.531 308.35 257.422 305.019 249.999 294.769C244.624 287.081 239.76 278.881 235.665 270.425L255.886 270.681Z" fill="#843722"/>
<path d="M239.249 230.194C244.112 232.244 248.719 244.544 252.303 255.05C254.095 259.919 255.63 265.3 256.142 270.425C256.142 270.425 243.6 277.6 236.945 275.806C236.945 275.806 230.546 253 234.897 241.469L239.249 230.194Z" fill="#F46F2A"/>
<path d="M214.932 330.387C228.754 329.875 242.32 329.619 256.142 329.619C249.487 325.262 243.6 322.187 242.32 320.906C239.505 318.087 240.528 292.719 242.576 284.775C244.624 276.831 244.624 267.606 243.088 263.762C241.552 259.919 239.505 230.194 239.505 230.194L230.29 226.862C230.29 226.862 233.105 248.131 210.836 248.131C188.311 248.131 188.311 225.325 188.311 225.325L173.977 228.4C173.977 228.4 172.953 256.075 173.465 268.887C173.977 281.7 179.864 303.225 181.656 314.756C182.936 323.725 180.632 329.106 178.84 335.512C190.103 331.412 202.389 329.619 214.932 330.387Z" fill="#F46F2A"/>
<path d="M262.286 486.444C262.286 486.444 262.03 489.262 257.422 490.544C254.607 491.312 251.535 490.287 249.743 487.981L248.719 497.462L285.323 497.719L262.286 486.444Z" fill="#110B0A"/>
<path d="M262.798 306.3C258.702 305.788 254.863 301.944 238.993 301.688C230.034 300.406 221.075 298.613 212.116 296.563C206.741 295.025 201.621 292.975 197.014 289.9C197.014 289.9 191.127 268.119 189.079 254.538C182.68 253.769 176.281 253 169.881 251.975C169.626 269.144 181.912 299.638 185.751 302.713C193.686 308.606 212.116 308.35 216.723 308.35C226.962 308.606 270.988 309.631 270.988 309.631C270.988 309.631 274.316 307.581 262.798 306.3Z" fill="#843722"/>
<path d="M194.198 276.319C194.198 276.319 188.311 241.981 186.775 238.394C178.072 219.688 166.042 229.681 167.834 244.031C168.602 250.181 169.114 266.069 172.185 281.187C179.608 281.187 187.287 279.65 194.198 276.319Z" fill="#F46F2A"/>
<path d="M326.277 308.35H248.719V312.962H326.277V308.35Z" fill="#D2DCEB"/>
<path d="M248.463 308.35H209.812V312.962H248.463V308.35Z" fill="#A6AEBA"/>
<path d="M178.328 335.769C175.769 348.069 181.912 374.975 221.843 381.894L244.624 391.119C250.255 384.2 252.303 375.487 250.767 366.775C247.951 352.681 231.825 347.3 221.331 330.388C221.331 330.388 204.693 323.469 194.198 327.056C188.311 328.85 182.936 331.925 178.328 335.769Z" fill="#09333A"/>
<path d="M231.058 184.837C231.058 184.837 226.194 185.094 220.307 176.125C220.307 176.125 220.819 180.225 215.188 185.606C209.556 190.987 204.181 189.45 203.413 192.269C202.901 193.806 202.645 195.6 202.389 197.137C201.621 196.881 200.854 196.369 200.598 195.6C200.086 194.319 199.574 192.781 198.55 191.756C195.99 189.962 191.383 192.269 192.919 197.394C193.686 199.7 195.222 201.494 197.27 202.775C197.27 211.487 200.854 214.05 200.854 214.05C200.854 214.05 194.966 216.612 191.895 215.587C187.543 213.794 186.519 210.975 186.519 206.362C184.472 205.85 182.424 204.825 180.888 203.287C175.001 197.394 181.912 180.225 184.472 178.175C184.472 178.175 177.816 168.95 186.263 162.544C194.71 156.137 197.782 166.387 197.782 166.387C200.598 164.337 211.86 163.569 217.747 165.619C234.385 172.025 231.058 184.837 231.058 184.837Z" fill="black"/>
<path d="M220.051 175.869C220.563 179.2 220.051 186.888 211.092 193.038" stroke="#482C3B" stroke-width="0.25" stroke-miterlimit="10"/>
<path d="M591.459 412.644H584.804V477.475H591.459V412.644Z" fill="#A6AEBA"/>
<path d="M593.507 403.419H582.756V412.9H593.507V403.419Z" fill="#D2DCEB"/>
<path d="M592.227 452.619H584.036V472.862H592.227V452.619Z" fill="#D2DCEB"/>
<path d="M593.507 472.862H582.756V482.344H593.507V472.862Z" fill="#D2DCEB"/>
<path d="M601.186 385.481H575.077V403.419H601.186V385.481Z" fill="#A6AEBA"/>
<path d="M552.04 380.1H621.919C622.687 380.1 623.199 380.613 623.199 381.381V391.888C623.199 392.656 622.687 393.169 621.919 393.169H552.04C551.272 393.169 550.76 392.656 550.76 391.888V381.381C550.505 380.613 551.272 380.1 552.04 380.1Z" fill="#A6AEBA"/>
<path d="M613.984 491.056L593.507 481.062V473.887L616.544 489.519L613.984 491.056Z" fill="#A6AEBA"/>
<path d="M616.544 497.975C619.229 497.975 621.407 495.794 621.407 493.106C621.407 490.418 619.229 488.237 616.544 488.237C613.859 488.237 611.681 490.418 611.681 493.106C611.681 495.794 613.859 497.975 616.544 497.975Z" fill="#A6AEBA"/>
<path d="M588.132 497.975C590.817 497.975 592.995 495.794 592.995 493.106C592.995 490.418 590.817 488.237 588.132 488.237C585.447 488.237 583.268 490.418 583.268 493.106C583.268 495.794 585.447 497.975 588.132 497.975Z" fill="#A6AEBA"/>
<path d="M562.279 491.056L582.756 481.062V473.887L559.463 489.519L562.279 491.056Z" fill="#A6AEBA"/>
<path d="M559.463 497.975C562.148 497.975 564.327 495.794 564.327 493.106C564.327 490.418 562.148 488.237 559.463 488.237C556.778 488.237 554.6 490.418 554.6 493.106C554.6 495.794 556.778 497.975 559.463 497.975Z" fill="#A6AEBA"/>
<path d="M589.412 477.475H586.852V493.106H589.412V477.475Z" fill="#A6AEBA"/>
<path d="M635.23 387.531C637.533 387.531 639.837 385.994 640.349 383.687C642.141 376.512 645.212 362.931 645.468 329.106C645.468 291.95 664.922 263.506 667.737 251.719C668.505 248.387 666.97 245.056 664.154 243.262C662.618 242.237 660.826 241.981 659.035 241.981H582.5C582.5 241.981 555.88 289.644 552.552 305.787C548.969 322.187 544.105 384.712 544.105 384.712L635.23 387.531Z" fill="#D0DFE1"/>
<path d="M632.926 387.531C632.926 387.531 639.069 375.744 639.069 329.106C639.069 290.669 658.523 259.15 660.826 246.85C661.338 244.544 659.803 242.237 657.243 241.981C656.987 241.981 656.731 241.981 656.475 241.981H575.845C575.845 241.981 549.225 289.644 545.897 305.787C542.57 321.931 537.45 384.712 537.45 384.712L632.926 387.531Z" fill="#B0BEBF"/>
<path d="M549.225 373.438H639.069V384.2C639.069 385.994 637.533 387.531 635.742 387.531H549.225V373.438Z" fill="#D0DFE1"/>
<path d="M526.444 373.438H556.136C558.439 373.438 560.231 375.231 560.231 377.538V387.531H526.188C523.884 387.531 522.092 385.737 522.092 383.431V377.538C522.092 375.231 524.14 373.438 526.444 373.438Z" fill="#B0BEBF"/>
<path d="M565.095 227.887C558.951 234.037 558.439 265.3 552.04 281.444C552.04 281.444 509.038 298.356 489.584 303.225L496.495 310.4C496.495 310.4 554.6 296.306 562.023 291.437C573.286 284.006 579.941 253.512 580.965 238.394C581.988 223.275 571.494 221.225 565.095 227.887Z" fill="#CC9275"/>
<path d="M494.448 304.25L489.584 303.225C489.584 303.225 479.858 302.2 476.53 301.944C473.202 301.687 469.619 305.019 465.268 306.556C462.196 307.581 459.38 308.862 456.821 310.656H460.148L467.059 311.681L473.458 310.656C477.298 310.4 481.393 310.4 485.233 310.656C488.817 310.912 492.4 310.912 495.984 310.656L494.448 304.25Z" fill="#F7D4B2"/>
<path d="M536.938 335.769C523.628 340.125 507.246 347.3 502.383 351.656C497.519 356.012 488.049 362.419 495.728 387.019C500.591 402.65 521.836 481.831 521.836 481.831L532.587 480.037C532.587 480.037 528.747 434.169 524.908 399.831C523.116 383.175 522.348 378.562 522.348 378.562L536.682 372.669C554.856 365.237 548.713 333.719 548.713 333.719L536.938 335.769Z" fill="#CC9275"/>
<path d="M506.99 346.787C502.127 351.144 498.799 349.862 491.632 374.462C487.025 390.094 470.387 469.531 470.387 469.531L480.37 473.887C493.936 435.962 493.936 435.962 509.55 405.212C514.413 395.731 517.997 385.737 520.3 375.487L549.481 373.694C567.654 366.262 561.511 339.612 561.511 339.612C561.511 339.612 511.854 342.431 506.99 346.787Z" fill="#DBA886"/>
<path d="M617.824 323.213C617.824 336.025 627.039 350.119 616.288 364.725C606.561 377.794 549.737 373.694 549.737 373.694C549.737 373.694 557.672 359.856 550.249 349.35C545.385 342.688 534.123 336.538 534.123 336.538L565.863 326.288L591.459 306.556L617.824 323.213Z" fill="#F46F2A"/>
<path d="M585.828 224.812C584.036 230.706 572.006 230.45 563.047 219.687C554.088 208.925 547.433 190.219 556.392 177.15C565.351 164.081 577.381 189.45 581.477 203.031C583.78 210.206 585.316 217.381 585.828 224.812Z" fill="#4F3529"/>
<path d="M557.416 176.894C555.112 179.713 557.416 190.731 557.672 192.269C558.44 195.344 556.904 199.7 557.928 200.469C558.951 200.981 559.719 200.981 560.743 200.981C560.999 200.981 565.095 209.438 565.863 210.975C566.886 213.538 573.03 208.925 575.077 210.975C576.357 212.513 576.357 215.075 576.869 218.406L573.286 233.013L602.466 227.375C598.37 221.481 594.787 215.331 591.715 208.925C589.411 203.031 592.227 196.625 591.459 188.938C590.691 181.25 587.364 171 576.101 169.975C569.446 168.95 562.279 171.513 557.416 176.894Z" fill="#DBA886"/>
<path d="M566.886 324.494C573.286 323.469 579.941 323.469 586.596 324.494C598.882 326.031 616.8 322.7 616.8 322.7C616.8 322.7 609.377 284.519 609.889 267.35C610.401 250.181 611.681 231.475 611.681 231.475L579.173 225.838C579.173 225.838 571.238 228.656 566.886 241.213C562.535 253.769 563.047 308.606 566.886 324.494Z" fill="white"/>
<path d="M577.125 218.406C574.821 220.712 566.886 223.788 566.886 227.375C566.886 230.962 560.743 260.175 560.999 266.325C561.255 272.475 563.559 295.794 562.279 302.969C561.255 310.656 560.999 318.344 560.999 326.031L566.886 324.75C566.886 324.75 565.095 284.263 566.886 269.144C568.678 254.025 579.173 226.35 579.173 226.35L575.077 225.069L577.125 218.406Z" fill="#133A50"/>
<path d="M588.9 226.094L579.173 225.837C579.173 225.837 575.845 240.956 575.845 269.656C576.357 288.875 577.893 307.837 580.709 326.8C586.34 328.85 592.483 329.875 598.37 330.131C604.514 330.387 610.657 329.106 616.288 326.8C615.264 311.169 615.264 295.537 616.288 279.906C618.08 256.587 624.223 251.462 622.943 236.087C620.896 210.975 598.114 219.687 598.114 219.687L588.9 226.094Z" fill="#133A50"/>
<path d="M579.173 225.837C579.173 225.837 594.787 218.406 597.347 213.537C598.114 215.587 598.626 217.637 598.626 219.687C598.37 221.737 583.268 236.087 583.268 236.087L579.173 225.837Z" fill="#F46F2A"/>
<path d="M591.971 227.631C595.811 208.156 585.572 202.519 574.309 195.6C567.142 190.731 560.999 184.581 556.392 177.15C556.392 177.15 560.743 163.056 573.542 159.981C586.34 157.163 602.466 165.106 606.561 185.094C609.377 199.444 613.216 204.312 622.943 211.231C634.462 219.687 638.045 240.956 624.479 251.206C611.937 260.688 619.104 238.137 614.496 225.325C613.728 223.275 604.002 234.038 598.626 235.831C592.739 237.881 591.459 230.706 591.971 227.631Z" fill="#4F3529"/>
<path d="M577.125 218.406C576.613 220.969 577.381 223.788 579.173 225.838L573.286 234.037C573.286 234.037 571.494 227.631 573.286 224.812C575.077 221.994 577.125 218.406 577.125 218.406Z" fill="#F46F2A"/>
<path d="M521.068 475.938C521.068 475.938 521.324 478.756 525.932 480.038C528.747 480.806 531.819 479.781 533.611 477.475L534.635 486.956L519.788 497.462H507.502L514.157 490.031L521.068 475.938Z" fill="#133A50"/>
<path d="M471.923 462.869C470.643 465.175 471.411 468.25 473.714 469.531C476.274 471.069 479.346 471.069 481.905 469.531L480.114 478.756L445.302 467.737L471.923 462.869Z" fill="#133A50"/>
<path d="M607.073 230.706C603.746 238.906 593.763 265.556 587.62 281.7C587.62 281.7 541.802 296.306 522.348 301.431L529.259 308.606C529.259 308.606 585.06 300.15 597.09 294.512C609.377 288.875 620.895 249.412 622.943 239.162C625.759 223.787 610.657 221.994 607.073 230.706Z" fill="#DBA886"/>
<path d="M526.956 302.456L522.092 301.431C522.092 301.431 512.365 300.406 509.038 300.15C505.71 299.894 502.127 303.225 497.775 304.763C494.704 305.788 491.888 307.069 489.328 308.863H492.656L499.567 309.888L505.966 308.863C509.806 308.606 513.901 308.606 517.741 308.863C521.324 309.119 524.908 309.119 528.491 308.863L526.956 302.456Z" fill="#DBA886"/>
<path d="M430.968 147.425L433.016 146.656L429.432 138.456C429.176 137.944 428.408 137.688 427.896 137.944C427.384 138.2 427.128 138.969 427.384 139.481L430.968 147.425Z" fill="#364469"/>
<path d="M395.133 143.325L401.788 148.706L400.508 135.125L397.948 131.537L395.133 143.325Z" fill="#F46F2A"/>
<path d="M495.728 309.631H486.257L476.786 249.156H483.953L495.728 309.631Z" fill="#A6AEBA"/>
<path d="M492.912 309.631H456.053L446.582 249.156H483.441L492.912 309.631Z" fill="#D2DCEB"/>
<path d="M495.728 308.35H455.541V312.962H495.728V308.35Z" fill="#D2DCEB"/>
<path d="M546.409 308.35H495.728V312.962H546.409V308.35Z" fill="#A6AEBA"/>
<path d="M472.691 282.469C473.714 287.081 472.947 292.206 470.899 293.744C468.851 295.281 466.291 292.719 465.267 288.106C464.244 283.494 465.012 278.369 467.059 276.831C469.107 275.294 471.667 277.856 472.691 282.469Z" fill="#A6AEBA"/>
<path d="M589.156 313.475H133.278V322.187H589.156V313.475Z" fill="#DBDBDB"/>
<path d="M181.912 496.95H186.263L222.099 322.188H213.14L181.912 496.95Z" fill="#DBDBDB"/>
<path d="M520.044 496.95H515.693L479.858 322.188H489.072L520.044 496.95Z" fill="#DBDBDB"/>
<path d="M539.498 77.725H478.066V138.712H539.498V77.725Z" fill="#E9F2F4"/>
<path d="M508.782 87.2062H487.281V130.769H508.782V87.2062Z" fill="white"/>
<path d="M539.498 66.1937H478.066V77.9812H539.498V66.1937Z" stroke="#E9F2F4" stroke-miterlimit="10"/>
<path d="M524.396 101.812C528.637 101.812 532.075 98.3708 532.075 94.125C532.075 89.8792 528.637 86.4375 524.396 86.4375C520.155 86.4375 516.717 89.8792 516.717 94.125C516.717 98.3708 520.155 101.812 524.396 101.812Z" fill="#00A0B4"/>
<path d="M523.884 97.2L520.3 92.5875L523.628 94.125L531.051 87.4625L523.884 97.2Z" fill="white"/>
<path d="M524.396 124.619C528.637 124.619 532.075 121.177 532.075 116.931C532.075 112.685 528.637 109.244 524.396 109.244C520.155 109.244 516.717 112.685 516.717 116.931C516.717 121.177 520.155 124.619 524.396 124.619Z" fill="#00A0B4"/>
<path d="M523.884 120.006L520.3 115.394L523.628 116.675L531.051 110.269L523.884 120.006Z" fill="white"/>
</g>
<defs>
<clipPath id="clip0">
<rect width="831" height="577" fill="white" transform="matrix(-1 0 0 1 831 0)"/>
</clipPath>
</defs>
</svg>
