<svg id="Layer_1" xmlns="http://www.w3.org/2000/svg" xmlns:xlink="http://www.w3.org/1999/xlink" width="702" height="615" viewBox="0 0 702 615"><style>.st0{fill:#e1eff9}.st2{fill:#c4b8ff}.st3{fill:#fff}.st4{fill:#333854}.st5{fill:#e3eef9}.st6{fill:#c0d8e8}.st8{fill:#1789ca}.st9{fill:#40327a}.st11{fill:#f7a894}.st12{fill:#00518a}.st13{fill:#d64b8f}.st19{fill:#ff907a}.st21,.st22{fill:none}.st22{stroke:#fff;stroke-width:1.0931;stroke-miterlimit:10}.st25{fill:#ff95a9}.st26{fill:#8bc7eb}.st27{fill:#3579b5}.st28{fill:#e5659b}.st31{fill:#b7dbf3}.st32{fill:#b2d6ea}.st33{fill:#a8cddd}</style><path class="st0" d="M105.3 189.7c.1 0 .2-.1.3-.2 9.1-44 48-77 94.6-77 53.4 0 96.6 43.3 96.6 96.6 0 3.6-.2 7.2-.6 10.8 0 .1.1.3.2.3 46.7 13.8 78.7 62 66.6 115.3-8 35.2-35.5 62.9-70.6 71.2-34.2 8.1-66.4-2.1-88.8-22.7-.1-.1-.3-.1-.4 0-21.3 23.5-52 38.3-86.2 38.4-64.6.1-117.3-52.8-117-117.2.3-60.4 46.4-109.9 105.3-115.5z"/><path class="st0" d="M638.3 58c48 32.4 60.9 97.2 28.8 144.8-25.5 37.8-71.6 53.3-113.6 42-2.2 5.1-4.8 10.2-8.1 15-26.5 39.3-79.9 49.7-119.2 23.2-15.3-10.3-26.2-24.7-32.3-40.8-16.4-.1-32.9-4.9-47.4-14.7-39.3-26.5-49.7-79.9-23.2-119.2 10.2-15.1 24.3-25.9 40.1-32 1.5-13.3 6.1-26.5 14.1-38.3C404-1.3 457.4-11.7 496.7 14.8c14.6 9.9 25.2 23.4 31.4 38.6C561.6 34.5 604.3 35 638.3 58z"/><defs><path id="SVGID_1_" d="M105.3 189.7c.1 0 .2-.1.3-.2 9.1-44 48-77 94.6-77 53.4 0 96.6 43.3 96.6 96.6 0 3.6-.2 7.2-.6 10.8 0 .1.1.3.2.3 46.7 13.8 78.7 62 66.6 115.3-8 35.2-35.5 62.9-70.6 71.2-34.2 8.1-66.4-2.1-88.8-22.7-.1-.1-.3-.1-.4 0-21.3 23.5-52 38.3-86.2 38.4-64.6.1-117.3-52.8-117-117.2.3-60.4 46.4-109.9 105.3-115.5z"/></defs><clipPath id="SVGID_2_"><use xlink:href="#SVGID_1_" overflow="visible"/></clipPath><defs><path id="SVGID_3_" d="M638.3 58c48 32.4 60.9 97.2 28.8 144.8-25.5 37.8-71.6 53.3-113.6 42-2.2 5.1-4.8 10.2-8.1 15-26.5 39.3-79.9 49.7-119.2 23.2-15.3-10.3-26.2-24.7-32.3-40.8-16.4-.1-32.9-4.9-47.4-14.7-39.3-26.5-49.7-79.9-23.2-119.2 10.2-15.1 24.3-25.9 40.1-32 1.5-13.3 6.1-26.5 14.1-38.3C404-1.3 457.4-11.7 496.7 14.8c14.6 9.9 25.2 23.4 31.4 38.6C561.6 34.5 604.3 35 638.3 58z"/></defs><clipPath id="SVGID_4_"><use xlink:href="#SVGID_3_" overflow="visible"/></clipPath><g clip-path="url(#SVGID_4_)"><path class="st2" d="M510.8 338.8v-1.4M659.6 337.4v1.4M477.9 314.9v1.4M433.3 316.3v-1.4"/><path class="st3" d="M450.7 33.2h139.7v223.5H450.7z"/><path class="st4" d="M519.9 256.7h1.4v84.6h-1.4z"/><path class="st4" d="M567 341.8l-46.4-46.5-46.5 46.5-1-1 47.5-47.4 47.4 47.4z"/><path class="st5" d="M496.6 56.4v32l-27.7 16c-2.7-4.7-4.3-10.2-4.3-16s1.6-11.3 4.3-16c5.6-9.6 15.9-16 27.7-16z"/><path class="st6" d="M524.3 104.3c-5.5 9.6-15.8 16-27.7 16-11.8 0-22.2-6.4-27.7-16l27.7-16 27.7 16z"/><path d="M528.6 88.3c0 5.8-1.6 11.3-4.3 16l-27.7-16v-32c11.8 0 22.2 6.4 27.7 16 2.7 4.8 4.3 10.2 4.3 16z" fill="#a0cae3"/><path class="st5" d="M466.5 135.9h34.3v1.4h-34.3zM466.5 140.1h34.3v1.4h-34.3zM466.5 144.3h34.3v1.4h-34.3zM466.5 148.5h23v1.4h-23zM466.5 152.7h23v1.4h-23zM542.8 62.9h34.3v1.4h-34.3zM542.8 67.1h34.3v1.4h-34.3zM542.8 71.3h34.3v1.4h-34.3zM542.8 75.5h23v1.4h-23zM542.8 79.7h23v1.4h-23z"/><path class="st6" d="M523.4 135.7h53.8v6.1h-53.8z"/><path class="st6" d="M577.5 141.9H523v-6.4h54.5v6.4zm-53.8-.3h53.1v-5.7h-53.1v5.7z"/><path class="st5" d="M523.4 147.8h53.8v6.1h-53.8z"/><path class="st5" d="M577.5 154H523v-6.4h54.5v6.4zm-53.8-.3h53.1V148h-53.1v5.7zM523.4 160.6h53.8v6.1h-53.8z"/><path class="st5" d="M577.5 166.8H523v-6.4h54.5v6.4zm-53.8-.3h53.1v-5.7h-53.1v5.7z"/><path class="st2" d="M397 336.3v-1.5"/><path class="st3" d="M469.3 104.9l-.7-1.2 27.3-15.8V56.3h1.4v32.4z"/><path transform="rotate(-60.007 510.445 96.33)" class="st3" d="M509.8 80.4h1.4v32h-1.4z"/><path class="st8" d="M364.9 161l-4.3 3.2 23.5 29.2.7-.1c1.5-2.6 3.5-4.9 5.9-6.8l1.7-1.3-13.4-34.6-14.1 10.4zM371.9 191.9l.9.1-19.8-19c1.4 9.6 8.9 17.5 18.9 18.9z"/><path class="st9" d="M343.7 185.2z"/><path d="M413.5 97.2h-15.2c-2.5 0-4.6-2-4.6-4.6 0-2.5 2-4.6 4.6-4.6h15.2c2.5 0 4.6 2 4.6 4.6-.1 2.6-2.1 4.6-4.6 4.6z" opacity=".08" fill="#1c1742"/><g><path class="st11" d="M385.5 254.7h-.2l1.1-.7-13.8 84.9c0 .2-.1.4-.1.7h8.7l.1.1 19.1-83.8c.1-.4.1-.7.2-1.1h-15.1zM408.6 254.7v84.8l8.6.3v-.3l6.4-84.8zM380.3 199.2c.4.4.9.7 1.5.8l.4.1 7.3 1.9c.2.1.5.1.7.1h1.1c2.4-.3 4.2-2.5 4-5-.2-2.6-2.5-4.5-5-4.3l-5.5.5-.7.1-23.5-29.2 4.3-3.2-9.1-10.8-8.5 8.2c-2.3 2.2-2.6 5.9-.5 8.5l.6.6 5.8 5.6 19.8 19 7.3 7.1z"/><path class="st12" d="M376 339.5h-3.5v6h12.1c1 0 1.9-.8 1.9-1.9 0-.7-.4-1.3-.9-1.6l-4.3-2.5-.1-.1H376z"/><path class="st13" d="M385.4 130l6.6-.8zM408.7 127.3l-2.2.3 2.2-.3z"/><path class="st12" d="M427.3 148.1l-5.4-10.4 13.9-18-10.3-9.1-1 1-15.9 15.8v.2l1.7 15.1-7.2-3.6-17.9-9-7 .8h-.1c-.2 0-.4.1-.7.1-1.1.3-2.2.7-3.1 1.5-.3.2-.6.5-.9.7l-1 1-8.8 8.5-8 7.7 9.1 10.8 14-10.3 13.4 34.6h31c0-.6 0-1.2-.1-1.7l-1.5-23.1c4.2-1 7.1-5 6.6-9.4 0-1.3-.3-2.3-.8-3.2z"/><path class="st8" d="M406.4 73.2c-1.7-.7-3.5-1.2-5.4-1.5-.1 0-.3-.1-.4-.1-6.3-.9-12.4.6-17.3 3.8-1.6 1-3.1 2.2-4.4 3.6-3.7 3.7-6.3 8.7-7.1 14.3-.4 2.8-.3 5.6.2 8.2 0 .3.1.5.2.8.3 1.5.8 2.9 1.4 4.3.1 1 .1 2.2-.2 3.4-1.8 9.8-9 8.3-10.8 18.1-1.3 7.3.7 9.7 1.3 14.5l8.8-8.5 1-1c.3-.3.5-.5.9-.7 1-.7 2-1.2 3.1-1.5.2-.1.5-.1.8-.2l13.7-1.6-1-9.2-1.5-12.9-.7.1c-1.8.2-3.5-1.1-3.7-2.9-.2-1.8 1.1-3.5 2.9-3.7l.7-.1c4.4-.5 8.5-2.4 11.7-5.5 3.4-3.3 7.7-5.5 12.3-6.5l3 17.2c1.1 6.1-3.2 11.9-9.4 12.6l-.9.1 1 9.2 2.2-.2 7.5-7.5c-.1-1.1-.2-2.3 0-3.7.1-1.3.4-2.4.8-3.3.9-1.2 1.8-2.5 2.5-3.8.1-.2.2-.5.4-.7 1.2-2.4 2-5 2.4-7.8 1.6-11.9-5.3-23.1-16-27.3z"/><path class="st3" d="M408.4 110.4c2-.2 3.5-2 3.2-4.1l-7.3.8c.3 2.1 2.1 3.5 4.1 3.3zM427.2 211.4v-9.1c0-5.9-1.4-11.7-4-17h-31l-1.7 1.3c-2.4 1.9-4.4 4.2-5.9 6.8l5.5-.5c2.6-.2 4.8 1.7 5 4.3.2 2.5-1.6 4.6-4 5H390c-.2 0-.5-.1-.7-.1l-7.3-1.9c-.3 1.5-.5 3-.5 4.6v7.4l3.6 48h38.3l3.6-48c.2-.3.2-.6.2-.8z"/><path class="st12" d="M408.6 339.5v6h12.1c1 0 1.9-.8 1.9-1.9 0-.7-.4-1.3-.9-1.6l-4.4-2.5v.3l-8.7-.3z"/><path class="st11" d="M479.2 70.6c-.4-2.5-2.8-4.3-5.3-3.9-.5.1-1 .3-1.5.5l-7.1 3.7c-.3.2-.6.3-.8.6l-32.4 32.3-6.7 6.7 10.3 9.1 5.8-7.5L468.8 77l6.6-1c2.5-.4 4.2-2.8 3.8-5.4z"/></g><path class="st11" d="M408.7 127.3l-2.2.2-1-9.2.9-.1c6.2-.7 10.5-6.5 9.4-12.6l-3-17.2c-4.6 1-8.9 3.3-12.3 6.5-3.2 3-7.3 5-11.7 5.5l-.7.1c-1.8.2-3.1 1.9-2.9 3.7.2 1.8 1.9 3.1 3.7 2.9l.7-.1 1.5 12.9 1 9.2-6.6.8 17.9 9 7.2 3.6-1.7-15.1-.2-.1 15.9-15.8-8.4 8.3-7.5 7.5zm2.9-21c.2 2-1.2 3.8-3.2 4.1-2 .2-3.8-1.2-4.1-3.2l7.3-.9z"/></g><path fill="none" stroke="#c0d8e8" stroke-width="1.5" stroke-miterlimit="10" d="M467.5 227.3l17.1-11.9 8.6 2.8 18-12.8 13.3 3.3 46.4-17.1"/><path fill="none" stroke="#e3eef9" stroke-width="2" stroke-miterlimit="10" d="M467.5 181.1v46.2h108.3"/><g><defs><path id="SVGID_5_" d="M105.3 189.7c.1 0 .2-.1.3-.2 9.1-44 48-77 94.6-77 53.4 0 96.6 43.3 96.6 96.6 0 3.6-.2 7.2-.6 10.8 0 .1.1.3.2.3 46.7 13.8 78.7 62 66.6 115.3-8 35.2-35.5 62.9-70.6 71.2-34.2 8.1-66.4-2.1-88.8-22.7-.1-.1-.3-.1-.4 0-21.3 23.5-52 38.3-86.2 38.4-64.6.1-117.3-52.8-117-117.2.3-60.4 46.4-109.9 105.3-115.5z"/></defs><clipPath id="SVGID_6_"><use xlink:href="#SVGID_5_" overflow="visible"/></clipPath><g clip-path="url(#SVGID_6_)"><path class="st12" d="M205.3 348.5l43.9 151.1h5l-35.9-151.1zM159.5 348.5l-43.9 151.1h-5l35.8-151.1z"/><circle cx="182.4" cy="326.9" r="73.9" fill="#343c57"/><path d="M128.2 355.3c0 21.1 24 38.1 53.6 38.1s53.6-17.1 53.6-38.1c0-21.1-24-26.5-53.6-26.5-29.6-.1-53.6 5.4-53.6 26.5z" fill="#4a5470"/><path class="st4" d="M206.9 169l-10.2.8c-4 .3-7.5-2.7-7.8-6.7s2.7-7.5 6.7-7.8l10.2-.8c4-.3 7.5 2.7 7.8 6.7.2 4-2.8 7.5-6.7 7.8z"/><path class="st19" d="M251.5 297.8c-1.2-2.5-.1-5.5 2.3-6.7 2.5-1.2 5.5-.1 6.7 2.3 1.2 2.5.1 5.5-2.3 6.7-2.5 1.3-5.5.2-6.7-2.3z"/><path class="st19" d="M243.5 292.1c-.7.1-1.5.3-2.2.6-3.5 1.7-4.9 5.8-3.3 9.3 1.7 3.5 5.8 4.9 9.3 3.3l10.8-5.2-2.7-9.5-11.9 1.5z"/><path class="st8" d="M218.8 346.6c0 4.8-.9 9.4-2.6 13.6h-67.5c-1.7-4.2-2.6-8.8-2.6-13.6 0-20.1 16.3-36.4 36.4-36.4 20 0 36.3 16.3 36.3 36.4z"/><circle class="st8" cx="182.4" cy="346.6" r="10"/><ellipse transform="rotate(-39.673 231.134 326.877)" class="st4" cx="231.1" cy="326.9" rx="13.6" ry="13.6"/><path class="st12" d="M200 270.1l57.8 30.7 15-22.6L222 237z"/><ellipse transform="rotate(-16.991 209.414 252.493)" class="st12" cx="209.4" cy="252.5" rx="20" ry="20"/><path class="st12" d="M166.7 268.9l-53.8 37.2-17.5-20.7 45.6-46.8z"/><ellipse transform="rotate(-64.919 155.367 252.47)" class="st12" cx="155.4" cy="252.5" rx="20" ry="20"/><circle class="st8" cx="160.3" cy="360.3" r="13.6"/><circle class="st8" cx="204.5" cy="360.3" r="13.6"/><path class="st12" d="M223.6 247.2l-4.9 99.5H146l-4.9-99.5c-.4-8 6-14.7 14-14.7h54.6c8 0 14.3 6.7 13.9 14.7z"/><path class="st8" d="M218.8 346.6l-.7 13.6v.7c-.4 7.3-6.3 13-13.6 13h-44.2c-7.3 0-13.3-5.7-13.6-13v-.7l-.7-13.6h72.8z"/><ellipse transform="rotate(-76.714 209.782 489.635)" class="st8" cx="209.8" cy="489.6" rx="8.4" ry="8.4"/><circle class="st8" cx="206.6" cy="362.5" r="11.5"/><path class="st8" d="M201.3 489.6l-6.2-127.1h23.1v127.1z"/><path class="st4" d="M226.7 499.6h-25.3v-10h16.9l9.7 5.3c.8.4 1.3 1.3 1.3 2.2-.1 1.4-1.3 2.5-2.6 2.5z"/><path class="st8" d="M265.4 372.7c4.4 1.6 6.7 6.4 5.1 10.8-1.6 4.4-6.4 6.7-10.8 5.1-4.4-1.6-6.7-6.4-5.1-10.8 1.6-4.4 6.4-6.7 10.8-5.1zM145.7 330c6 2.1 9.1 8.7 7 14.7-2.1 6-8.7 9.1-14.7 7-6-2.1-9.1-8.7-7-14.7 2.1-6 8.7-9.1 14.7-7z"/><path class="st8" d="M259.8 388.5L138 351.8l7.7-21.8 119.7 42.7z"/><path class="st4" d="M266.3 399.9l8.5-23.9-9.4-3.3-5.7 15.9 1.7 10.9c.1.9.8 1.7 1.6 2 1.4.4 2.9-.3 3.3-1.6z"/><path transform="matrix(.9983 .05784 -.05784 .9983 12.978 -10.315)" class="st11" d="M172.2 205.5h24.9v27h-24.9z"/><ellipse transform="rotate(-41.684 183.883 232.516)" class="st11" cx="183.9" cy="232.5" rx="12.5" ry="12.5"/><path class="st8" d="M149.7 368.8l-16.8-20.6 16.6-15.9 19.9 17.8z"/><ellipse transform="rotate(-33.912 105.205 294.95)" class="st12" cx="105.2" cy="294.9" rx="13.6" ry="13.6"/><path fill="#aeafb6" d="M159.6 340.6h47.9v6h-47.9z"/><path class="st4" d="M211.2 186.4l-3.6.3-2-24.4 3.6-.3c6.7-.5 12.6 4.5 13.2 11.2.6 6.7-4.5 12.6-11.2 13.2zM183.3 211.8l-7.2.6c-6 .5-11.2-4-11.7-10l-.7-8.1 18.1-1.5 1.5 19z"/><path class="st4" d="M206.7 186.1l-7.9.6-2.5-31.4 6.6-.5c7.2-.6 13.5 4.8 14.1 12l.5 6.6c.6 6.5-4.3 12.2-10.8 12.7z"/><path class="st11" d="M208 219.1l-32.1 2.6-2.9-36.1c-.9-11 7.3-20.6 18.3-21.5 10.6-.9 20 6.8 21.4 17.3l3.6 27.5c.6 5.1-3.1 9.8-8.3 10.2z"/><path class="st21" d="M214.9 198.5l-2.2-17.1 2.2 17.1z"/><path class="st4" d="M181.3 161.4l.7-.1 2.7 34-20.8 1.7-1.1-13.9c-.9-11.1 7.4-20.8 18.5-21.7z"/><path class="st11" d="M174.1 199.6l5.4-.4-.4-5.4c-.2-3-2.9-5.2-5.9-5-3 .2-5.2 2.9-5 5.9.3 3 2.9 5.2 5.9 4.9z"/><path class="st4" d="M215.1 175.7l-20.6 1.7c-8.4.7-15.8-5.6-16.4-14-.3-4 2.7-7.5 6.7-7.8s7.5 2.7 7.8 6.7c0 .4.4.7.8.7l20.6-1.7 1.1 14.4z"/><path class="st11" d="M200.2 332.5c-.5-4.4-4.4-7.5-8.8-7.1-4.4.5-7.5 4.4-7.1 8.8.5 4.4 4.4 7.5 8.8 7.1 4.5-.4 7.6-4.4 7.1-8.8z"/><path class="st11" d="M184.2 332.3c.4 3.3-2 6.2-5.3 6.6-3.3.4-6.2-2-6.6-5.3-.4-3.3 2-6.2 5.3-6.6 3.2-.4 6.2 2 6.6 5.3z"/><path class="st11" d="M190.9 341.3l-13.7-2.5.4-11.8 13.8-1.5z"/><path class="st12" d="M114.3 284.2l65.7 42.2-5.5 11.4-3.8-1.5-5.5-2.3-63.5-25.8z"/><path class="st3" d="M178.7 203.3l.4-.3c.5-.3.7-1.1.3-1.6l-4.8-7.2c-.3-.5-1.1-.7-1.6-.3l-.4.3c-.5.3-.7 1.1-.3 1.6l4.8 7.2c.4.5 1.1.6 1.6.3z"/><path class="st22" d="M207.5 219.1c.1 15.2.5 44 4 60.4M177.5 200.7s33.8 50 41.3 117.5"/><circle class="st3" cx="173.4" cy="195.2" r="3"/><path d="M203.6 346.6h92.3c2 0 3.6-1.7 3.7-3.8l.5-12.5 2.3-54.1c.1-2.2-1.5-4-3.5-4h-88.8c-1.9 0-3.4 1.6-3.5 3.6l-2.3 54.7-.7 16.1z" fill="#bfbfc5"/><ellipse transform="rotate(-44.332 255.22 310.396)" class="st3" cx="255.2" cy="310.4" rx="7.2" ry="6.8"/></g></g><path class="st0" d="M554.7 349.7c-29.7-30.9-72.8-45.1-116.2-35.7-50.7 11-87.5 51.5-96.5 101.6-32.8 18.3-51.2 57.9-42.4 98.3 10.6 48.9 56.9 80.4 103.4 70.3 11.6-2.5 22.1-7.4 31.2-14 19.1 5.7 39.7 6.8 60.3 2.3 3.3-.7 6.4-1.5 9.6-2.5 28 24.9 66.1 36.6 104.4 28.3 65.3-14.2 106.1-81.3 91.2-149.9-14.9-68.7-79.8-112.8-145-98.7z"/><g><defs><path id="SVGID_7_" d="M554.7 349.7c-29.7-30.9-72.8-45.1-116.2-35.7-50.7 11-87.5 51.5-96.5 101.6-32.8 18.3-51.2 57.9-42.4 98.3 10.6 48.9 56.9 80.4 103.4 70.3 11.6-2.5 22.1-7.4 31.2-14 19.1 5.7 39.7 6.8 60.3 2.3 3.3-.7 6.4-1.5 9.6-2.5 28 24.9 66.1 36.6 104.4 28.3 65.3-14.2 106.1-81.3 91.2-149.9-14.9-68.7-79.8-112.8-145-98.7z"/></defs><clipPath id="SVGID_8_"><use xlink:href="#SVGID_7_" overflow="visible"/></clipPath><g clip-path="url(#SVGID_8_)"><path class="st25" d="M420.7 407.8h-25.3v-27.7c0-8.4 6.8-15.2 15.2-15.2 8.1 0 15.5 6.4 15.9 14.5l1 21.1c.3 4-2.8 7.3-6.8 7.3z"/><path class="st11" d="M427.6 400.5c.2 3.9-3 7.2-6.9 7.2h-25.2V380c0-8.4 6.8-15.2 15.2-15.2 4.1 0 8.5 1.6 11.2 4.2 2.7 2.6 4.5 6.2 4.7 10.3l1 21.2z"/><path class="st9" d="M430.7 366.9v8.2c0 .6-.1 1.3-.2 1.8H415v-18.4h7.4c4.6.1 8.3 3.8 8.3 8.4z"/><path class="st21" d="M427.2 392.5l-.6-13.1.6 13.1z"/><path class="st4" d="M403.8 362.3v26h-15.9v-10.1c-.1-8.8 7.1-15.9 15.9-15.9z"/><path class="st4" d="M428.8 375.2h-16.4c-6.4 0-11.6-5.2-11.6-11.6 0-3.1 2.5-5.5 5.5-5.5s5.5 2.5 5.5 5.5c0 .3.3.6.6.6h16.4v11z"/><path class="st4" d="M422.9 369.7h-8.5c-3.1 0-5.5-2.5-5.5-5.5 0-3.1 2.5-5.5 5.5-5.5h8.5c3.1 0 5.5 2.5 5.5 5.5s-2.5 5.5-5.5 5.5z"/><path class="st4" d="M435.2 372.8c0 4.6-3.7 8.3-8.3 8.3s-9-3.7-9-8.3c0-4.6 4.4-8.3 9-8.3s8.3 3.7 8.3 8.3z"/><path class="st4" d="M400 370.8h23.1v8.6H400z"/><path class="st4" d="M400.7 379.4h17.8v11h-17.8z"/><path class="st4" d="M405.1 400.8h-4.8c-6.9 0-12.4-5.6-12.4-12.4v-2.1h26.5v5.2c-.1 5.1-4.2 9.3-9.3 9.3z"/><path class="st11" d="M405 429.6c-5.3 0-9.5-4.3-9.5-9.5v-19.4h19v19.4c0 5.3-4.3 9.5-9.5 9.5zM418.5 394.6h4.2v-8.3h-4.2c-2.3 0-4.2 1.9-4.2 4.2 0 2.2 1.9 4.1 4.2 4.1z"/><path class="st4" d="M424.6 376.3h-10.3v9.9h3c4 0 7.3-3.3 7.3-7.3v-2.6z"/><circle class="st11" cx="405" cy="420.1" r="9.5"/><path class="st26" d="M365.4 568.9c-6.1 0-11.1-5-11.1-11.1s5-11.1 11.1-11.1 11.1 5 11.1 11.1-5 11.1-11.1 11.1zm0-20.7c-5.3 0-9.6 4.3-9.6 9.6s4.3 9.6 9.6 9.6 9.6-4.3 9.6-9.6-4.3-9.6-9.6-9.6z"/><path class="st26" d="M393.4 608h-56c-4.7 0-8.5-3.8-8.5-8.5v-33.2c0-4.7 3.8-8.5 8.5-8.5h56c4.7 0 8.5 3.8 8.5 8.5v33.2c0 4.7-3.8 8.5-8.5 8.5z"/><ellipse transform="rotate(-45.001 454.403 474.522)" class="st3" cx="454.4" cy="474.5" rx="10.4" ry="10.4"/><path class="st3" d="M413.6 444l33 37.4 16.8-12.1-25.2-43.1z"/><path class="st11" d="M504.4 488.8c-2 2.7-5.8 3.4-8.5 1.4s-3.4-5.8-1.4-8.5 5.8-3.4 8.5-1.4 3.3 5.8 1.4 8.5z"/><path class="st25" d="M493.6 483c1.5-2.1 1-4.9-1.1-6.4s-4.9-1-6.4 1.1-1 4.9 1.1 6.4c2.1 1.4 4.9.9 6.4-1.1z"/><path class="st11" d="M501.4 479.5l-10-3.5-4.2 8 8.7 6.2z"/><ellipse transform="rotate(-86.46 425.008 433.93) scale(1.00001)" class="st3" cx="425" cy="433.9" rx="15.2" ry="15.2"/><ellipse transform="rotate(-10.166 384.08 433.918)" class="st3" cx="384" cy="433.8" rx="15.2" ry="15.2"/><path class="st4" d="M431.8 516l-3.2 64.5H411V516z"/><ellipse transform="rotate(-76.667 387.707 516.052)" class="st27" cx="387.7" cy="516" rx="10.4" ry="10.4"/><circle class="st27" cx="421.4" cy="516" r="10.4"/><path class="st3" d="M436 429.8l-3.7 75.9h-55.5l-3.7-75.9c-.3-6.1 4.6-11.2 10.6-11.2h41.7c6.1 0 10.9 5.1 10.6 11.2z"/><path class="st4" d="M432.3 505.6l-.5 10.4v.5c-.3 5.5-4.8 9.9-10.4 9.9h-33.7c-5.5 0-10.1-4.3-10.4-9.9v-.5l-.5-10.4h55.5z"/><path class="st4" d="M398 517.4l-8.3 63.9-17.4-2.2 5.1-64.4z"/><ellipse transform="rotate(-45.001 417.428 677.452)" class="st27" cx="417.4" cy="677.4" rx="6.4" ry="6.4"/><ellipse transform="rotate(-76.714 419.868 580.556)" class="st4" cx="419.8" cy="580.5" rx="8.8" ry="8.8"/><path class="st4" d="M389.7 581.3c-.6 4.8-5 8.2-9.9 7.6-4.8-.6-8.2-5-7.6-9.9.6-4.8 5-8.2 9.9-7.6s8.2 5.1 7.6 9.9zM411 677.4v-96.9h17.6l-4.7 96.9z"/><path class="st4" d="M364.5 676.6l7.8-97.5 17.4 2.2-12.5 97z"/><path class="st12" d="M430.3 685.1H411v-7.6h12.9l7.4 4c.6.3 1 1 1 1.7-.1 1-.9 1.9-2 1.9z"/><ellipse transform="rotate(-76.714 370.904 677.482)" class="st4" cx="370.9" cy="677.4" rx="6.4" ry="6.4"/><path class="st12" d="M383.8 685.1h-19.3v-7.6h12.9l7.4 4c.6.3 1 1 1 1.7-.1 1-1 1.9-2 1.9z"/><path class="st3" d="M359.4 487.8c-5.7 0-10.4-4.6-10.4-10.4 0-5.7 4.6-10.4 10.4-10.4 5.7 0 10.4 4.6 10.4 10.4 0 5.7-4.6 10.4-10.4 10.4z"/><path class="st3" d="M396.5 442.5l-28.5 41-18.1-10.1 20.1-45.7z"/><path class="st11" d="M367.6 554c3.3-.8 5.3-4 4.6-7.3-.8-3.3-4-5.3-7.3-4.6-3.3.8-5.3 4-4.6 7.3.8 3.3 4 5.3 7.3 4.6z"/><path class="st11" d="M366.3 541.8c-2.5.6-4.9-1-5.5-3.4-.6-2.5 1-4.9 3.4-5.5 2.5-.6 4.9 1 5.5 3.4.6 2.5-.9 4.9-3.4 5.5z"/><path class="st11" d="M360.2 547.7l.6-10.6 9-.8 2.4 10.4z"/><path class="st3" d="M369.8 477.4l.1 59.9-9.1.9-.6-3-.8-4.5-10.2-51.2z"/><path class="st11" d="M360.8 538.2l9.1-.9v-4l-9.7 1.9z"/><path class="st3" d="M491.3 476l-1.4 8.9h-35.5l3.3-20.2 29.3 9.8z"/><path class="st11" d="M491.3 476l-1.4 8.9h-4.6l1.7-10.4z"/><path class="st28" d="M629.6 505.6c0 3.7-.7 7.2-2 10.4h-51.5c-1.3-3.2-2-6.7-2-10.4 0-15.3 12.4-27.8 27.8-27.8 15.2.1 27.7 12.5 27.7 27.8z"/><circle cx="601.8" cy="505.6" r="7.6" fill="#bf5355"/><ellipse transform="rotate(-10.446 641.316 545.363)" class="st11" cx="641.2" cy="545.3" rx="6.1" ry="6.1"/><path class="st11" d="M640.2 539.1c2.5.2 4.7-1.7 4.9-4.2.2-2.5-1.7-4.7-4.2-4.9-2.5-.2-4.7 1.7-4.9 4.2-.2 2.6 1.7 4.8 4.2 4.9z"/><path class="st11" d="M647.2 544l-2.2-10.4-9.1.6-.7 10.7zM649.9 485.6c5.7.4 10.7-3.9 11.1-9.6.4-5.7-3.9-10.7-9.6-11.1-5.7-.4-10.7 3.9-11.1 9.6-.4 5.7 3.9 10.7 9.6 11.1z"/><path class="st11" d="M610.7 443.6l32 38.3 17.1-11.6-24-43.8z"/><ellipse transform="rotate(-76.538 622.439 433.836)" class="st8" cx="622.4" cy="433.8" rx="15.2" ry="15.2"/><path class="st11" d="M489.4 488.3c1.9 2.8 5.7 3.5 8.5 1.6s3.5-5.7 1.6-8.5-5.7-3.5-8.5-1.6c-2.8 2-3.5 5.8-1.6 8.5z"/><path class="st25" d="M500.3 482.7c-1.4-2.1-.9-4.9 1.2-6.3 2.1-1.4 4.9-.9 6.3 1.2 1.4 2.1.9 4.9-1.2 6.3-2 1.4-4.9.9-6.3-1.2z"/><path class="st11" d="M492.5 479.1l10.1-3.3 4 8.1-8.7 6z"/><ellipse transform="rotate(-73.912 551.674 474.347)" class="st11" cx="551.7" cy="474.3" rx="10.4" ry="10.4"/><path class="st11" d="M592.6 443.9l-33.2 37.3-16.7-12.1 25.4-43z"/><path class="st8" d="M592.6 443.9l-22.7 25.6-19.2-14 17.4-29.4zM610.7 443.6l21.9 26.2 19.6-13.3-16.4-30z"/><path class="st11" d="M644.9 535.8l-9-1.6 4.4-59.7 20.4 3.5-13.8 50.4-1.2 4.4z"/><path class="st11" d="M640.3 474.5l-4.4 59.7 9 1.6 15.8-57.8z"/><path class="st11" d="M636.4 527.6l-.5 6.6 9 1.6.8-3 .9-3.4z"/><path class="st8" d="M571.1 445.2c6.3 5.6 15.9 5 21.5-1.3s5-15.9-1.3-21.5-15.9-5-21.5 1.3-5 15.9 1.3 21.5z"/><path class="st12" d="M629 515.4l.8 64.6-17.6 1-3.9-64.3z"/><circle class="st28" cx="584.9" cy="516" r="10.4"/><ellipse transform="rotate(-66.583 618.673 516.047)" class="st28" cx="618.7" cy="516" rx="10.4" ry="10.4"/><path class="st8" d="M633.3 429.8l-.9 19.3-.8 15.5-2 41.1h-55.5l-2-41.1-.8-15.5-.9-19.3c-.3-6.1 4.6-11.2 10.6-11.2h41.7c6 0 10.9 5.1 10.6 11.2z"/><path class="st12" d="M629.6 505.6l-.5 10.4v.5c-.3 5.5-4.8 9.9-10.4 9.9H585c-5.5 0-10.1-4.3-10.4-9.9v-.5l-.5-10.4h55.5z"/><path class="st12" d="M595.3 516v64.5h-17.6l-3.1-64.5z"/><ellipse transform="rotate(-76.714 588.965 677.476)" class="st28" cx="588.9" cy="677.4" rx="6.4" ry="6.4"/><path class="st28" d="M631 677c.2 3.5-2.5 6.6-6 6.8-3.5.2-6.6-2.5-6.8-6-.2-3.5 2.5-6.6 6-6.8 3.5-.2 6.6 2.4 6.8 6z"/><ellipse transform="rotate(-48.507 621.064 580.532)" class="st12" cx="621" cy="580.5" rx="8.8" ry="8.8"/><ellipse transform="rotate(-80.781 586.544 580.517)" class="st12" cx="586.5" cy="580.5" rx="8.8" ry="8.8"/><path class="st12" d="M618.2 677.8l-6-96.8 17.6-1 1.2 97zM582.5 677.4l-4.8-96.9h17.6v96.9z"/><path class="st4" d="M576 685.1h19.3v-7.6h-12.9l-7.4 4c-.6.3-1 1-1 1.7.1 1 1 1.9 2 1.9zM611.7 685.1H631v-7.6h-12.9l-7.4 4c-.6.3-1 1-1 1.7.1 1 .9 1.9 2 1.9z"/><path class="st8" d="M633.3 429.8l-.9 19.3h-61.1l-.9-19.3c-.3-6.1 4.6-11.2 10.6-11.2h41.7c6 0 10.9 5.1 10.6 11.2z"/><path d="M614.4 418.6c0 7.6-6.1 13.7-13.7 13.7s-13.7-6.1-13.7-13.7h27.4z" fill="#ffc371"/><path class="st4" d="M579.4 382.7l2.8-.1-1-18.7-2.8.1c-5.2.3-9.1 4.7-8.8 9.8.2 5.2 4.6 9.1 9.8 8.9zM603 399.1l4.7-.3c5-.3 8.9-4.5 8.6-9.6l-.3-5.4-13.8.7.8 14.6z"/><path transform="scale(-1) rotate(-3.024 -15468.23 22737.857)" class="st11" d="M590.7 398h19v20.6h-19z"/><path class="st4" d="M583.6 382l5.1-.3-1.3-24-4.1.2c-6 .3-10.6 5.5-10.3 11.5l.2 3.3c.3 5.4 4.9 9.6 10.4 9.3z"/><path class="st11" d="M585.1 407.1l24.5-1.3-1.5-27.6c-.4-8.4-7.6-14.9-16-14.4-8.1.4-14.5 7.2-14.4 15.3l.1 21.2c0 3.8 3.3 7 7.3 6.8z"/><path class="st21" d="M577.7 392.2l-.1-13.2.1 13.2z"/><path class="st4" d="M598.9 360.8l1.4 26 15.9-.8-.5-10.1c-.5-8.8-8-15.6-16.8-15.1z"/><path class="st11" d="M608.7 388.9l-4.1.2-.2-4.1c-.1-2.3 1.6-4.2 3.9-4.4 2.3-.1 4.2 1.6 4.4 3.9.1 2.4-1.7 4.3-4 4.4z"/><path class="st4" d="M575.3 375l15.7-.8c6.4-.3 11.4-5.8 11-12.2-.2-3.1-2.8-5.4-5.8-5.2-3.1.2-5.4 2.8-5.2 5.8 0 .3-.2.6-.5.6l-15.7.8.5 11z"/><path class="st4" d="M580.9 369.1l7.8-.4c3.1-.2 5.4-2.8 5.2-5.8-.2-3.1-2.8-5.4-5.8-5.2l-7.8.4c-3.1.2-5.4 2.8-5.2 5.8s2.7 5.4 5.8 5.2z"/><path class="st11" d="M614.4 418.6c0 7.6-6.1 13.7-13.7 13.7s-13.7-6.1-13.7-13.7h27.4z"/><ellipse transform="rotate(-28.567 600.712 418.58)" class="st11" cx="600.7" cy="418.6" rx="9.5" ry="9.5"/><path class="st4" d="M577.8 405.8c0 3.2 2.7 5.7 5.8 5.5l11-.6c6.1-.3 10.8-5.5 10.5-11.6l-.7-12.9-4.1.2c.1 2.5-1.8 4.7-4.4 4.8l-18.2 1 .1 13.6z"/><path class="st11" d="M551.7 484.7h-47.6l-1.1-9 46.2-11.4z"/><path class="st3" d="M590.1 396c.1 2.3-1.6 4.3-3.9 4.4-2.3.1-4.3-1.6-4.4-3.9l8.3-.5z"/><circle class="st31" cx="505" cy="389.4" r="30.3"/><path class="st32" d="M524 409.2c-5.3 5.1-12.3 7.8-19.6 7.6-15.1-.4-27.2-13-26.8-28.1.2-7.3 3.2-14.2 8.5-19.2 5.3-5.1 12.3-7.8 19.6-7.6 15.1.4 27.2 13 26.8 28.1-.2 7.3-3.2 14.2-8.5 19.2z"/><path class="st31" d="M504.4 414c-6.6-.2-12.7-2.9-17.3-7.6-9.4-9.8-9-25.5.8-34.9 4.8-4.5 11-7 17.6-6.8 6.6.2 12.7 2.9 17.3 7.6 9.4 9.8 9 25.5-.8 34.9-4.8 4.5-11 7-17.6 6.8z"/><path class="st32" d="M504.4 414c-6.6-.2-12.7-2.9-17.3-7.6-9.4-9.8-9-25.5.8-34.9 4.8-4.5 11-7 17.6-6.8l-1.1 49.3z"/><g><path class="st33" d="M512.1 401c-.9.9-2.1 1.5-3.5 1.7-2.1.3-4.2.3-6.3-.1-3.1-.6-5.2-3.4-5.2-6.5V395h1.1v1.1c-.1 2.6 1.7 4.9 4.3 5.4 1.9.4 3.9.5 5.9.1 2.6-.4 4.5-2.6 4.5-5.2.1-2.4-1.4-4.4-3.6-5.2l-7.5-2.6c-2.7-.9-4.5-3.5-4.4-6.3.1-3.1 2.4-5.8 5.5-6.3 2.1-.3 4.2-.3 6.3.1 3.1.6 5.2 3.4 5.2 6.5v1.1h-1.1v-1.1c.1-2.6-1.7-4.9-4.3-5.4-1.9-.4-3.9-.5-5.9-.1-2.6.4-4.5 2.6-4.5 5.2-.1 2.4 1.4 4.4 3.6 5.2l7.5 2.6c2.7.9 4.5 3.5 4.4 6.3 0 1.8-.8 3.5-2 4.6z"/><path transform="matrix(.02347 -.9997 .9997 .02347 120.412 871.206)" class="st33" d="M503.7 373.4h4.9v1.1h-4.9z"/><path transform="matrix(.02347 -.9997 .9997 .02347 88.88 900.593)" class="st33" d="M503 404.2h4.9v1.1H503z"/></g><g><path class="st3" d="M511.3 401c-.9.9-2.1 1.5-3.5 1.7-2.1.3-4.2.3-6.3-.1-3.1-.6-5.2-3.4-5.2-6.5V395h1.1v1.1c-.1 2.6 1.7 4.9 4.3 5.4 1.9.4 3.9.5 5.9.1 2.6-.4 4.5-2.6 4.5-5.2.1-2.4-1.4-4.4-3.6-5.2l-7.5-2.6c-2.7-.9-4.5-3.5-4.4-6.3.1-3.1 2.4-5.8 5.5-6.3 2.1-.3 4.2-.3 6.3.1 3.1.6 5.2 3.4 5.2 6.5v1.1h-1.1v-1.1c.1-2.6-1.7-4.9-4.3-5.4-1.9-.4-3.9-.5-5.9-.1-2.6.4-4.5 2.6-4.5 5.2-.1 2.4 1.4 4.4 3.6 5.2l7.5 2.6c2.7.9 4.5 3.5 4.4 6.3 0 1.8-.8 3.4-2 4.6z"/><path transform="matrix(.02347 -.9997 .9997 .02347 119.649 870.388)" class="st3" d="M502.9 373.4h4.9v1.1h-4.9z"/><path transform="matrix(.02347 -.9997 .9997 .02347 88.116 899.774)" class="st3" d="M502.2 404.2h4.9v1.1h-4.9z"/></g></g></g></svg>